<?xml version="1.0" encoding="UTF-8" standalone="no"?>
<svg
   xmlns:dc="http://purl.org/dc/elements/1.1/"
   xmlns:cc="http://creativecommons.org/ns#"
   xmlns:rdf="http://www.w3.org/1999/02/22-rdf-syntax-ns#"
   xmlns:svg="http://www.w3.org/2000/svg"
   xmlns="http://www.w3.org/2000/svg"
   id="svg8"
   style="fill-rule:evenodd;clip-rule:evenodd;stroke-linejoin:round;stroke-miterlimit:2;"
   xml:space="preserve"
   version="1.1"
   viewBox="0 0 250 250"
   height="100%"
   width="100%"><metadata
   id="metadata14"><rdf:RDF><cc:Work
       rdf:about=""><dc:format>image/svg+xml</dc:format><dc:type
         rdf:resource="http://purl.org/dc/dcmitype/StillImage" /><dc:title></dc:title></cc:Work></rdf:RDF></metadata><defs
   id="defs12" />
    <g
   id="g6"
   transform="matrix(3.68987,0,0,3.68987,0,-0.824688)">
        <path
   id="path2"
   style="fill:rgb(20,175,86);"
   d="M54.963,67.976L12.791,67.976C5.726,67.976 0,62.25 0,55.187L0,13.016C0,5.951 5.726,0.224 12.791,0.224L54.963,0.224C62.027,0.224 67.753,5.951 67.753,13.016L67.753,55.187C67.753,62.25 62.027,67.976 54.963,67.976Z" />
        <path
   id="path4"
   style="fill:white;fill-rule:nonzero;"
   d="M30.358,37.869C27.898,40.499 24.352,42.157 24.295,44.103C24.237,46.046 26.212,46.79 27.412,46.79C28.613,46.79 38.392,46.761 40.366,46.79C42.311,46.816 43.462,46.273 43.511,44.501C43.568,42.444 40.475,41.635 37.106,37.754C34.475,34.72 33.789,31.73 33.789,31.73C33.789,31.73 32.805,35.249 30.358,37.869ZM13.773,14.364C14.63,14.335 15.183,14.668 15.573,15.963C15.941,17.184 16.316,20.855 18.309,21.816C19.884,22.579 20.368,21.206 20.368,19.721C20.368,18.234 20.349,16.101 20.349,15.507C20.349,14.05 20.748,12.78 22.427,12.78C24.161,12.78 24.253,14.724 24.253,15.83C24.253,16.936 24.235,19.378 24.256,19.987C24.295,21.084 24.556,22.583 26.096,21.883C27.354,21.311 28.291,19.634 28.832,17.089C29.213,15.296 29.442,14.269 30.891,14.229C32.272,14.191 32.634,15.478 32.702,17.109C32.766,18.71 31.896,22.483 29.938,24.639C28.413,26.315 27.366,26.936 25.782,28.377C24.838,29.234 24.29,30.547 24.295,31.767C24.305,34.18 24.92,34.697 26.354,34.152C27.555,33.693 29.061,32.148 30.358,29.176C31.608,26.307 32.835,26.201 33.712,26.201C34.59,26.201 35.638,26.697 36.61,28.87C37.395,30.624 38.44,32.339 39.965,33.444C42.639,35.384 43.32,33.941 43.32,32.301C43.32,30.159 42.401,29.051 40.88,27.802C39.814,26.924 37.669,25.597 36.676,24.057C35.589,22.37 35.046,20.463 35.046,17.452C35.046,14.439 36.133,14.229 36.934,14.306C37.735,14.382 38.25,14.993 38.669,16.86C39.307,19.703 40.48,21.398 41.824,21.94C42.863,22.362 43.381,21.504 43.381,20.018C43.381,18.644 43.375,15.328 43.368,14.679C43.362,14.067 43.873,12.667 45.36,12.704C46.828,12.742 47.235,13.914 47.235,14.714C47.235,15.513 47.235,18.674 47.228,19.854C47.224,20.659 47.66,22.503 48.973,21.94C50.04,21.484 50.794,20.024 51.518,18.157C52.27,16.217 52.318,14.344 53.996,14.306C55.674,14.266 55.751,16.905 55.407,18.843C54.873,21.854 54.434,22.904 52.833,24.656C51.632,25.972 50.146,27.173 49.116,28.145C48.055,29.15 47.318,30.394 47.285,31.959C47.248,33.788 47.912,35.127 49.954,33.788C51.06,33.063 52.623,32.073 53.92,29.424C54.714,27.799 55.064,26.088 56.588,26.22C58.527,26.39 58.311,28.711 58.038,30.26C57.523,33.179 56.436,35.693 54.32,37.754C51.305,40.687 47.285,42.749 47.248,44.808C47.217,46.464 48.505,46.79 49.516,46.79C51.527,46.79 52.608,46.767 53.334,46.777C54.463,46.79 55.678,47.304 55.65,48.79C55.629,49.892 54.82,50.641 53.305,50.634C52.09,50.631 49.802,50.631 49.231,50.631C48.277,50.631 47.056,50.792 48.048,52.242C49.039,53.691 50.474,55.497 50.474,55.497L45.255,55.497C45.255,55.497 41.691,50.654 38.45,50.62C35.647,50.591 36.133,55.484 36.133,55.484L31.73,55.484C31.73,55.484 31.473,50.65 28.947,50.641C26.465,50.631 22.275,55.484 22.275,55.484L17.432,55.484C17.432,55.484 19.453,52.317 19.681,51.555C19.911,50.792 19.339,50.603 18.275,50.644C16.79,50.697 15.151,50.644 14.243,50.644C12.834,50.644 11.942,49.878 11.942,48.619C11.942,47.363 13.046,46.79 14.496,46.79C15.95,46.79 16.785,46.79 17.599,46.793C20.192,46.81 21.398,44.159 19.148,42.519C16.899,40.879 12.456,38.552 10.684,34.036C10.194,32.789 9.539,30.489 9.539,28.642C9.539,27.67 9.997,26.411 11.37,26.24C12.742,26.068 13.559,27.504 13.773,28.87C14.144,31.262 15.745,33.693 17.889,34.264C20.503,34.963 20.368,33.292 20.368,31.978C20.368,30.662 19.526,29.389 17.661,27.86C15.64,26.201 13.905,25.189 12.456,20.939C11.599,18.425 11.407,14.442 13.773,14.364Z" />
    </g>
</svg>