<?xml version="1.0" encoding="UTF-8" standalone="no"?>
<!DOCTYPE svg PUBLIC "-//W3C//DTD SVG 1.1//EN" "http://www.w3.org/Graphics/SVG/1.1/DTD/svg11.dtd">
<svg width="100%" height="100%" viewBox="0 0 788 181" version="1.1" xmlns="http://www.w3.org/2000/svg" xmlns:xlink="http://www.w3.org/1999/xlink" xml:space="preserve" xmlns:serif="http://www.serif.com/" style="fill-rule:evenodd;clip-rule:evenodd;stroke-linejoin:round;stroke-miterlimit:2;">
    <g transform="matrix(1,0,0,1,0,-242)">
        <g id="NOA-GaB-Digital" serif:id="NOA GaB Digital" transform="matrix(0.48,0,0,0.48,0,242.634)">
            <rect x="0" y="0" width="1641.67" height="375" style="fill:none;"/>
            <clipPath id="_clip1">
                <rect x="0" y="0" width="1641.67" height="375"/>
            </clipPath>
            <g clip-path="url(#_clip1)">
                <g transform="matrix(4.16667,0,0,4.16667,0,0)">
                    <g transform="matrix(1,0,0,1,0.411972,-3.085)">
                        <path d="M107.291,16.959L112.081,16.959L121.229,31.665L121.291,31.665L121.291,16.959L125.804,16.959L125.804,38.88L120.984,38.88L111.866,24.205L111.804,24.205L111.804,38.88L107.291,38.88L107.291,16.959Z" style="fill:rgb(35,31,32);fill-rule:nonzero;"/>
                        <path d="M139.462,31.113C138.726,31.757 137.19,31.788 135.84,32.034C134.489,32.31 133.261,32.771 133.261,34.367C133.261,35.994 134.52,36.393 135.932,36.393C139.339,36.393 139.462,33.691 139.462,32.74L139.462,31.113ZM129.393,27.889C129.638,23.806 133.292,22.578 136.853,22.578C140.015,22.578 143.822,23.284 143.822,27.091L143.822,35.349C143.822,36.792 143.976,38.235 144.375,38.88L139.954,38.88C139.8,38.389 139.677,37.867 139.646,37.345C138.265,38.788 136.239,39.31 134.305,39.31C131.296,39.31 128.901,37.805 128.901,34.551C128.901,30.959 131.603,30.1 134.305,29.731C136.976,29.332 139.462,29.424 139.462,27.644C139.462,25.771 138.173,25.495 136.638,25.495C134.98,25.495 133.906,26.17 133.752,27.889L129.393,27.889Z" style="fill:rgb(35,31,32);fill-rule:nonzero;"/>
                        <path d="M152.723,23.008L155.916,23.008L155.916,25.924L152.723,25.924L152.723,33.784C152.723,35.257 153.091,35.625 154.564,35.625C155.025,35.625 155.455,35.595 155.916,35.503L155.916,38.911C155.179,39.033 154.227,39.064 153.367,39.064C150.696,39.064 148.363,38.45 148.363,35.288L148.363,25.924L145.723,25.924L145.723,23.008L148.363,23.008L148.363,18.249L152.723,18.249L152.723,23.008Z" style="fill:rgb(35,31,32);fill-rule:nonzero;"/>
                        <path d="M172.891,38.88L168.747,38.88L168.747,36.669L168.654,36.669C167.549,38.45 165.646,39.31 163.804,39.31C159.167,39.31 158.001,36.7 158.001,32.771L158.001,23.008L162.361,23.008L162.361,31.972C162.361,34.582 163.128,35.871 165.154,35.871C167.518,35.871 168.531,34.551 168.531,31.328L168.531,23.008L172.891,23.008L172.891,38.88Z" style="fill:rgb(35,31,32);fill-rule:nonzero;"/>
                        <path d="M176.204,23.008L180.348,23.008L180.348,25.955L180.41,25.955C181.208,23.959 183.357,22.578 185.475,22.578C185.782,22.578 186.151,22.639 186.427,22.731L186.427,26.784C186.028,26.692 185.383,26.63 184.861,26.63C181.668,26.63 180.563,28.933 180.563,31.727L180.563,38.88L176.204,38.88L176.204,23.008Z" style="fill:rgb(35,31,32);fill-rule:nonzero;"/>
                        <path d="M196.924,38.88L192.074,38.88L186.64,23.008L191.214,23.008L194.561,33.845L194.622,33.845L197.968,23.008L202.297,23.008L196.924,38.88Z" style="fill:rgb(35,31,32);fill-rule:nonzero;"/>
                        <path d="M214.79,29.24C214.39,27.029 213.439,25.863 211.32,25.863C208.557,25.863 207.759,28.012 207.698,29.24L214.79,29.24ZM207.698,32.003C207.821,34.766 209.171,36.025 211.596,36.025C213.346,36.025 214.758,34.95 215.035,33.968L218.873,33.968C217.645,37.713 215.035,39.31 211.443,39.31C206.439,39.31 203.338,35.871 203.338,30.959C203.338,26.201 206.623,22.578 211.443,22.578C216.846,22.578 219.456,27.122 219.149,32.003L207.698,32.003Z" style="fill:rgb(35,31,32);fill-rule:nonzero;"/>
                        <path d="M221.725,23.008L225.87,23.008L225.87,25.955L225.931,25.955C226.729,23.959 228.878,22.578 230.997,22.578C231.303,22.578 231.671,22.639 231.948,22.731L231.948,26.784C231.549,26.692 230.904,26.63 230.382,26.63C227.189,26.63 226.084,28.933 226.084,31.727L226.084,38.88L221.725,38.88L221.725,23.008Z" style="fill:rgb(35,31,32);fill-rule:nonzero;"/>
                        <path d="M234.217,23.008L238.362,23.008L238.362,25.218L238.454,25.218C239.559,23.438 241.462,22.578 243.304,22.578C247.94,22.578 249.107,25.188 249.107,29.117L249.107,38.88L244.748,38.88L244.748,29.916C244.748,27.306 243.98,26.016 241.954,26.016C239.589,26.016 238.577,27.336 238.577,30.56L238.577,38.88L234.217,38.88L234.217,23.008Z" style="fill:rgb(35,31,32);fill-rule:nonzero;"/>
                        <path d="M253.371,25.924L250.761,25.924L250.761,23.008L253.371,23.008L253.371,21.78C253.371,18.986 255.121,16.959 258.682,16.959C259.45,16.959 260.247,17.052 260.984,17.083L260.984,20.336C260.462,20.275 259.941,20.245 259.388,20.245C258.221,20.245 257.73,20.736 257.73,22.056L257.73,23.008L260.739,23.008L260.739,25.924L257.73,25.924L257.73,38.88L253.371,38.88L253.371,25.924Z" style="fill:rgb(35,31,32);fill-rule:nonzero;"/>
                        <path d="M270.346,36.025C273.325,36.025 274.215,33.477 274.215,30.959C274.215,28.411 273.325,25.863 270.346,25.863C267.399,25.863 266.509,28.411 266.509,30.959C266.509,33.477 267.399,36.025 270.346,36.025ZM270.346,22.578C275.351,22.578 278.575,25.894 278.575,30.959C278.575,35.994 275.351,39.31 270.346,39.31C265.374,39.31 262.15,35.994 262.15,30.959C262.15,25.894 265.374,22.578 270.346,22.578Z" style="fill:rgb(35,31,32);fill-rule:nonzero;"/>
                        <path d="M281.396,23.008L285.541,23.008L285.541,25.955L285.602,25.955C286.4,23.959 288.549,22.578 290.667,22.578C290.974,22.578 291.342,22.639 291.619,22.731L291.619,26.784C291.22,26.692 290.575,26.63 290.053,26.63C286.861,26.63 285.755,28.933 285.755,31.727L285.755,38.88L281.396,38.88L281.396,23.008Z" style="fill:rgb(35,31,32);fill-rule:nonzero;"/>
                        <path d="M301.257,25.863C298.678,25.863 297.542,28.288 297.542,30.959C297.542,33.599 298.678,36.025 301.257,36.025C303.835,36.025 304.971,33.599 304.971,30.959C304.971,28.288 303.835,25.863 301.257,25.863ZM293.336,16.959L297.696,16.959L297.696,24.942L297.757,24.942C298.832,23.314 300.796,22.578 302.761,22.578C305.923,22.578 309.332,25.126 309.332,30.928C309.332,36.762 305.923,39.31 302.761,39.31C300.428,39.31 298.494,38.604 297.542,36.854L297.481,36.854L297.481,38.88L293.336,38.88L293.336,16.959Z" style="fill:rgb(35,31,32);fill-rule:nonzero;"/>
                        <path d="M326.981,38.88L322.836,38.88L322.836,36.669L322.744,36.669C321.639,38.45 319.736,39.31 317.893,39.31C313.257,39.31 312.091,36.7 312.091,32.771L312.091,23.008L316.451,23.008L316.451,31.972C316.451,34.582 317.218,35.871 319.245,35.871C321.608,35.871 322.622,34.551 322.622,31.328L322.622,23.008L326.981,23.008L326.981,38.88Z" style="fill:rgb(35,31,32);fill-rule:nonzero;"/>
                        <path d="M330.293,23.008L334.438,23.008L334.438,25.218L334.53,25.218C335.635,23.438 337.539,22.578 339.38,22.578C344.016,22.578 345.183,25.188 345.183,29.117L345.183,38.88L340.824,38.88L340.824,29.916C340.824,27.306 340.056,26.016 338.03,26.016C335.666,26.016 334.653,27.336 334.653,30.56L334.653,38.88L330.293,38.88L330.293,23.008Z" style="fill:rgb(35,31,32);fill-rule:nonzero;"/>
                        <path d="M356.017,25.863C353.162,25.863 352.179,28.319 352.179,30.928C352.179,33.415 353.315,36.025 356.017,36.025C358.903,36.025 359.762,33.507 359.762,30.898C359.762,28.319 358.841,25.863 356.017,25.863ZM359.824,36.854L359.762,36.854C358.75,38.573 356.968,39.31 354.943,39.31C350.153,39.31 347.82,35.196 347.82,30.806C347.82,26.538 350.184,22.578 354.85,22.578C356.723,22.578 358.565,23.376 359.547,24.942L359.609,24.942L359.609,16.959L363.968,16.959L363.968,38.88L359.824,38.88L359.824,36.854Z" style="fill:rgb(35,31,32);fill-rule:nonzero;"/>
                        <path d="M377.934,29.24C377.535,27.029 376.583,25.863 374.464,25.863C371.702,25.863 370.904,28.012 370.842,29.24L377.934,29.24ZM370.842,32.003C370.965,34.766 372.316,36.025 374.741,36.025C376.491,36.025 377.903,34.95 378.179,33.968L382.017,33.968C380.79,37.713 378.179,39.31 374.587,39.31C369.583,39.31 366.483,35.871 366.483,30.959C366.483,26.201 369.767,22.578 374.587,22.578C379.991,22.578 382.6,27.122 382.293,32.003L370.842,32.003Z" style="fill:rgb(35,31,32);fill-rule:nonzero;"/>
                        <path d="M390.395,23.008L393.588,23.008L393.588,25.924L390.395,25.924L390.395,33.784C390.395,35.257 390.764,35.625 392.238,35.625C392.698,35.625 393.127,35.595 393.588,35.503L393.588,38.911C392.851,39.033 391.9,39.064 391.041,39.064C388.369,39.064 386.036,38.45 386.036,35.288L386.036,25.924L383.396,25.924L383.396,23.008L386.036,23.008L386.036,18.249L390.395,18.249L390.395,23.008Z" style="fill:rgb(35,31,32);fill-rule:nonzero;"/>
                        <path d="M107.375,57.045L109.309,57.045L109.309,72.887L107.375,72.887L107.375,57.045ZM107.375,50.967L109.309,50.967L109.309,54.068L107.375,54.068L107.375,50.967Z" style="fill:rgb(35,31,32);fill-rule:nonzero;"/>
                        <path d="M131.104,71.567C136.876,71.567 139.332,66.716 139.332,61.927C139.332,57.138 136.876,52.287 131.104,52.287C125.302,52.287 122.846,57.138 122.846,61.927C122.846,66.716 125.302,71.567 131.104,71.567ZM131.104,50.506C137.981,50.506 141.42,55.94 141.42,61.927C141.42,67.914 137.981,73.348 131.104,73.348C124.197,73.348 120.758,67.914 120.758,61.927C120.758,55.94 124.197,50.506 131.104,50.506Z" style="fill:rgb(35,31,32);fill-rule:nonzero;"/>
                        <path d="M153.789,61.681C153.697,59.287 151.855,58.212 149.645,58.212C147.925,58.212 145.899,58.887 145.899,60.945C145.899,62.664 147.864,63.278 149.184,63.616L151.763,64.199C153.973,64.537 156.276,65.826 156.276,68.589C156.276,72.028 152.868,73.348 149.921,73.348C146.237,73.348 143.719,71.628 143.412,67.76L145.346,67.76C145.5,70.37 147.434,71.72 150.013,71.72C151.824,71.72 154.342,70.922 154.342,68.711C154.342,66.87 152.623,66.256 150.873,65.826L148.386,65.274C145.868,64.598 143.965,63.739 143.965,61.037C143.965,57.813 147.127,56.585 149.921,56.585C153.083,56.585 155.6,58.243 155.723,61.681L153.789,61.681Z" style="fill:rgb(35,31,32);fill-rule:nonzero;"/>
                        <rect x="159.098" y="50.967" width="1.934" height="21.92" style="fill:rgb(35,31,32);fill-rule:nonzero;"/>
                        <path d="M165.882,64.966C165.882,68.343 167.724,71.72 171.438,71.72C175.153,71.72 176.996,68.343 176.996,64.966C176.996,61.589 175.153,58.212 171.438,58.212C167.724,58.212 165.882,61.589 165.882,64.966ZM178.93,64.966C178.93,69.51 176.29,73.348 171.438,73.348C166.588,73.348 163.948,69.51 163.948,64.966C163.948,60.422 166.588,56.585 171.438,56.585C176.29,56.585 178.93,60.422 178.93,64.966Z" style="fill:rgb(35,31,32);fill-rule:nonzero;"/>
                        <path d="M191.483,64.966C191.483,68.343 193.325,71.72 197.04,71.72C200.754,71.72 202.596,68.343 202.596,64.966C202.596,61.589 200.754,58.212 197.04,58.212C193.325,58.212 191.483,61.589 191.483,64.966ZM204.531,64.966C204.531,69.51 201.89,73.348 197.04,73.348C192.189,73.348 189.549,69.51 189.549,64.966C189.549,60.422 192.189,56.585 197.04,56.585C201.89,56.585 204.531,60.422 204.531,64.966Z" style="fill:rgb(35,31,32);fill-rule:nonzero;"/>
                        <path d="M218.865,64.782C218.865,61.681 217.422,58.212 213.769,58.212C210.084,58.212 208.549,61.498 208.549,64.782C208.549,67.975 210.208,71.076 213.769,71.076C217.115,71.076 218.865,68.005 218.865,64.782ZM220.799,71.598C220.769,76.326 218.958,79.211 213.769,79.211C210.607,79.211 207.475,77.799 207.199,74.422L209.133,74.422C209.563,76.755 211.62,77.584 213.769,77.584C217.331,77.584 218.865,75.466 218.865,71.598L218.865,69.449L218.804,69.449C217.914,71.383 216.041,72.703 213.769,72.703C208.704,72.703 206.616,69.081 206.616,64.567C206.616,60.208 209.195,56.585 213.769,56.585C216.072,56.585 218.037,58.028 218.804,59.778L218.865,59.778L218.865,57.045L220.799,57.045L220.799,71.598Z" style="fill:rgb(35,31,32);fill-rule:nonzero;"/>
                        <path d="M236.484,64.292L245.111,64.292L240.874,53.054L236.484,64.292ZM239.799,50.967L242.132,50.967L250.729,72.887L248.488,72.887L245.817,66.072L235.839,66.072L233.199,72.887L230.958,72.887L239.799,50.967Z" style="fill:rgb(35,31,32);fill-rule:nonzero;"/>
                        <path d="M252.353,50.967L254.288,50.967L254.288,64.721L263.068,57.045L265.647,57.045L258.892,62.91L266.107,72.887L263.682,72.887L257.418,64.26L254.288,66.87L254.288,72.887L252.353,72.887L252.353,50.967Z" style="fill:rgb(35,31,32);fill-rule:nonzero;"/>
                        <path d="M279.092,63.861C279,60.945 277.188,58.212 274.057,58.212C270.895,58.212 269.145,60.975 268.837,63.861L279.092,63.861ZM268.837,65.489C268.869,68.313 270.342,71.72 274.057,71.72C276.881,71.72 278.417,70.063 279.031,67.668L280.964,67.668C280.135,71.26 278.048,73.348 274.057,73.348C269.022,73.348 266.904,69.479 266.904,64.966C266.904,60.792 269.022,56.585 274.057,56.585C279.153,56.585 281.179,61.037 281.026,65.489L268.837,65.489Z" style="fill:rgb(35,31,32);fill-rule:nonzero;"/>
                        <path d="M283.633,57.045L285.415,57.045L285.415,60.76L285.476,60.76C286.458,58.212 288.607,56.708 291.462,56.831L291.462,58.765C287.962,58.581 285.568,61.16 285.568,64.445L285.568,72.887L283.633,72.887L283.633,57.045Z" style="fill:rgb(35,31,32);fill-rule:nonzero;"/>
                        <path d="M302.789,61.681C302.697,59.287 300.855,58.212 298.644,58.212C296.925,58.212 294.899,58.887 294.899,60.945C294.899,62.664 296.864,63.278 298.184,63.616L300.763,64.199C302.973,64.537 305.276,65.826 305.276,68.589C305.276,72.028 301.868,73.348 298.92,73.348C295.237,73.348 292.719,71.628 292.413,67.76L294.346,67.76C294.5,70.37 296.434,71.72 299.013,71.72C300.824,71.72 303.341,70.922 303.341,68.711C303.341,66.87 301.623,66.256 299.873,65.826L297.385,65.274C294.869,64.598 292.964,63.739 292.964,61.037C292.964,57.813 296.126,56.585 298.92,56.585C302.083,56.585 304.6,58.243 304.723,61.681L302.789,61.681Z" style="fill:rgb(35,31,32);fill-rule:nonzero;"/>
                        <path d="M308.037,50.967L309.97,50.967L309.97,59.778L310.032,59.778C310.738,57.875 312.857,56.585 315.097,56.585C319.549,56.585 320.9,58.918 320.9,62.695L320.9,72.887L318.966,72.887L318.966,63.001C318.966,60.269 318.076,58.212 314.944,58.212C311.875,58.212 310.032,60.545 309.97,63.646L309.97,72.887L308.037,72.887L308.037,50.967Z" style="fill:rgb(35,31,32);fill-rule:nonzero;"/>
                        <path d="M337.383,72.887L335.603,72.887L335.603,70.032L335.542,70.032C334.528,72.151 332.441,73.348 330.077,73.348C326.085,73.348 324.52,71.014 324.52,67.331L324.52,57.045L326.454,57.045L326.454,67.361C326.546,70.216 327.621,71.72 330.691,71.72C334.006,71.72 335.45,68.589 335.45,65.366L335.45,57.045L337.383,57.045L337.383,72.887Z" style="fill:rgb(35,31,32);fill-rule:nonzero;"/>
                        <path d="M350.52,61.681C350.428,59.287 348.586,58.212 346.375,58.212C344.657,58.212 342.63,58.887 342.63,60.945C342.63,62.664 344.595,63.278 345.916,63.616L348.495,64.199C350.705,64.537 353.007,65.826 353.007,68.589C353.007,72.028 349.599,73.348 346.652,73.348C342.968,73.348 340.451,71.628 340.144,67.76L342.078,67.76C342.231,70.37 344.166,71.72 346.745,71.72C348.555,71.72 351.073,70.922 351.073,68.711C351.073,66.87 349.354,66.256 347.604,65.826L345.117,65.274C342.6,64.598 340.696,63.739 340.696,61.037C340.696,57.813 343.859,56.585 346.652,56.585C349.814,56.585 352.332,58.243 352.455,61.681L350.52,61.681Z" style="fill:rgb(35,31,32);fill-rule:nonzero;"/>
                    </g>
                    <g transform="matrix(1.00698,0,0,1.00698,5.55112e-17,-0.628361)">
                        <path d="M72.505,90L16.875,90C7.555,90 0,82.446 0,73.127L0,17.497C0,8.179 7.555,0.623 16.875,0.623L72.505,0.623C81.822,0.623 89.376,8.179 89.376,17.497L89.376,73.127C89.376,82.446 81.822,90 72.505,90Z" style="fill:rgb(20,176,87);fill-rule:nonzero;"/>
                    </g>
                    <g transform="matrix(1.00698,0,0,1.00698,-0.426535,-0.167725)">
                        <path d="M40.467,49.825C37.224,53.294 32.546,55.482 32.47,58.049C32.395,60.612 34.998,61.595 36.582,61.595C38.167,61.595 51.067,61.556 53.671,61.595C56.237,61.627 57.756,60.912 57.818,58.575C57.894,55.86 53.814,54.793 49.372,49.673C45.9,45.672 44.995,41.728 44.995,41.728C44.995,41.728 43.696,46.369 40.467,49.825ZM18.589,18.821C19.721,18.781 20.452,19.22 20.965,20.928C21.452,22.54 21.947,27.381 24.573,28.65C26.653,29.656 27.292,27.846 27.292,25.887C27.292,23.924 27.266,21.111 27.266,20.327C27.266,18.405 27.793,16.729 30.007,16.729C32.295,16.729 32.416,19.295 32.416,20.754C32.416,22.213 32.393,25.434 32.42,26.237C32.47,27.683 32.815,29.662 34.847,28.738C36.506,27.983 37.743,25.772 38.455,22.413C38.959,20.049 39.261,18.694 41.172,18.641C42.995,18.592 43.473,20.289 43.561,22.441C43.647,24.552 42.498,29.529 39.914,32.374C37.904,34.584 36.522,35.404 34.434,37.304C33.188,38.434 32.464,40.167 32.47,41.776C32.483,44.959 33.294,45.642 35.188,44.922C36.772,44.317 38.758,42.28 40.467,38.358C42.118,34.574 43.737,34.434 44.894,34.434C46.052,34.434 47.433,35.088 48.717,37.955C49.752,40.268 51.13,42.531 53.141,43.989C56.668,46.546 57.568,44.644 57.568,42.481C57.568,39.656 56.356,38.194 54.35,36.546C52.941,35.388 50.113,33.637 48.804,31.606C47.37,29.381 46.653,26.865 46.653,22.893C46.653,18.918 48.086,18.641 49.144,18.744C50.2,18.843 50.878,19.65 51.432,22.112C52.275,25.862 53.82,28.098 55.593,28.813C56.964,29.37 57.649,28.237 57.649,26.278C57.649,24.466 57.639,20.091 57.632,19.234C57.623,18.428 58.296,16.582 60.258,16.629C62.195,16.681 62.731,18.226 62.731,19.281C62.731,20.334 62.731,24.504 62.724,26.062C62.716,27.124 63.293,29.556 65.024,28.813C66.432,28.212 67.426,26.286 68.381,23.822C69.372,21.265 69.437,18.792 71.65,18.744C73.864,18.691 73.965,22.171 73.512,24.729C72.807,28.7 72.229,30.085 70.118,32.396C68.533,34.132 66.572,35.716 65.214,36.998C63.813,38.323 62.84,39.964 62.798,42.029C62.749,44.442 63.625,46.209 66.319,44.442C67.779,43.486 69.839,42.18 71.55,38.685C72.597,36.542 73.059,34.286 75.069,34.459C77.628,34.684 77.343,37.744 76.982,39.789C76.303,43.639 74.869,46.955 72.078,49.673C68.102,53.543 62.798,56.264 62.749,58.979C62.708,61.164 64.408,61.595 65.741,61.595C68.393,61.595 69.821,61.564 70.777,61.576C72.266,61.595 73.87,62.271 73.833,64.232C73.806,65.686 72.738,66.673 70.739,66.666C69.137,66.66 66.117,66.66 65.365,66.66C64.106,66.66 62.497,66.874 63.806,68.786C65.113,70.696 67.005,73.08 67.005,73.08L60.119,73.08C60.119,73.08 55.418,66.691 51.143,66.647C47.445,66.608 48.086,73.06 48.086,73.06L42.277,73.06C42.277,73.06 41.94,66.685 38.606,66.673C35.334,66.66 29.805,73.06 29.805,73.06L23.418,73.06C23.418,73.06 26.085,68.884 26.385,67.879C26.688,66.874 25.934,66.624 24.531,66.677C22.571,66.749 20.408,66.677 19.212,66.677C17.351,66.677 16.177,65.668 16.177,64.007C16.177,62.349 17.632,61.595 19.545,61.595C21.463,61.595 22.564,61.595 23.638,61.598C27.058,61.62 28.65,58.123 25.681,55.959C22.715,53.796 16.855,50.727 14.515,44.77C13.871,43.125 13.008,40.091 13.008,37.654C13.008,36.371 13.61,34.71 15.421,34.485C17.232,34.259 18.309,36.153 18.589,37.955C19.08,41.111 21.192,44.317 24.021,45.07C27.469,45.992 27.292,43.788 27.292,42.056C27.292,40.318 26.182,38.639 23.719,36.622C21.053,34.434 18.765,33.1 16.855,27.493C15.724,24.176 15.471,18.922 18.589,18.821Z" style="fill:white;fill-rule:nonzero;"/>
                    </g>
                </g>
            </g>
        </g>
    </g>
</svg>
